#!OML:ASF F:\VICON\USERDATA\INSTALL\rory3\rory3.ASF
:FULLY-SPECIFIED
:DEGREES
487
root 2.35703 17.4799 6.03843 -365.319 -29.0565 6.30027
lowerback 24.6698 1.53566 -0.905244
upperback 3.76444 2.31138 6.09634
thorax -9.8847 1.1989 6.62845
lowerneck -12.2107 0.363917 -3.04075
upperneck 16.1088 2.60445 -8.77744
head 7.06309 0.264002 -2.09787
rclavicle 1.82882e-014 -3.81667e-014
rhumerus -19.8926 -26.0184 -61.4569
rradius 26.549
rwrist 4.5941
rhand -4.59108 -4.79759
rfingers 7.12502
rthumb 21.1863 -33.6599
lclavicle 1.82882e-014 -3.81667e-014
lhumerus -42.1751 -1.00264 93.1524
lradius 60.27
lwrist 9.37356
lhand -13.4568 47.7141
lfingers 7.12502
lthumb 12.6529 77.3109
rfemur -21.7983 -10.6725 14.1104
rtibia 54.8404
rfoot -24.2444 -29.1187
rtoes 24.7044
lfemur -16.9035 7.76807 -28.1648
ltibia 42.8924
lfoot -17.8984 7.87926
ltoes -12.7141
488
root 2.35892 17.4794 6.04753 -365.17 -28.3451 5.42435
lowerback 25.0684 1.60947 -0.425737
upperback 3.71417 2.57501 6.3518
thorax -10.1785 1.31637 6.55791
lowerneck -11.974 0.297435 -2.81029
upperneck 16.2104 2.44641 -8.67495
head 7.0472 0.214544 -2.11797
rclavicle -5.48646e-014 -4.45278e-014
rhumerus -21.7142 -28.6655 -59.8626
rradius 26.937
rwrist 2.03058
rhand -6.24403 -4.63868
rfingers 7.12502
rthumb 19.5978 -33.6709
lclavicle -5.48646e-014 -4.45278e-014
lhumerus -42.7572 -0.68243 92.788
lradius 60.2958
lwrist 9.05028
lhand -13.0825 47.7448
lfingers 7.12502
lthumb 13.0137 77.3189
rfemur -21.3109 -9.76277 14.7731
rtibia 55.1026
rfoot -24.8922 -29.2445
rtoes 26.3739
lfemur -16.4963 7.76781 -27.3292
ltibia 42.6577
lfoot -18.083 7.31906
ltoes -11.7302
489
root 2.37056 17.4851 6.07095 -364.899 -27.3904 4.61016
lowerback 25.3072 1.58921 0.345475
upperback 3.60266 2.78581 6.46735
thorax -10.428 1.39344 6.17004
lowerneck -12.4407 0.23947 -2.08788
upperneck 16.803 2.3296 -8.79904
head 7.32319 0.159204 -2.29913
rclavicle -1.51076e-014 -6.36111e-015
rhumerus -23.7614 -31.6622 -58.1093
rradius 27.408
rwrist 0.0313078
rhand -8.30493 -3.90716
rfingers 7.12502
rthumb 17.6154 -33.1292
lclavicle -1.51076e-014 -6.36111e-015
lhumerus -43.2738 -0.81254 92.4767
lradius 60.1262
lwrist 9.06329
lhand -13.102 47.858
lfingers 7.12502
lthumb 12.9948 77.4333
rfemur -20.9499 -9.45507 15.3506
rtibia 55.2708
rfoot -24.5446 -30.0538
rtoes 25.9886
lfemur -16.2963 7.22449 -26.6615
ltibia 42.5473
lfoot -18.2757 6.87366
ltoes -10.9547
490
root 2.38284 17.4907 6.09412 -364.861 -26.6029 4.1714
lowerback 25.3618 1.5664 0.828072
upperback 3.715 2.8814 6.47673
thorax -10.3164 1.41549 5.86164
lowerneck -12.8632 0.167127 -1.72218
upperneck 17.0637 2.19278 -8.74057
head 7.47852 0.104392 -2.36005
rclavicle -6.52014e-014 3.18055e-015
rhumerus -25.3691 -34.5924 -56.6128
rradius 27.9609
rwrist -1.47004
rhand -10.2789 -3.54178
rfingers 7.12502
rthumb 15.715 -32.9237
lclavicle -6.52014e-014 3.18055e-015
lhumerus -43.3948 -0.666934 91.9253
lradius 59.7773
lwrist 8.97038
lhand -12.3035 48.0702
lfingers 7.12502
lthumb 13.7646 77.5948
rfemur -20.6557 -9.28195 15.5758
rtibia 55.4469
rfoot -24.1966 -30.7036
rtoes 25.4795
lfemur -16.0418 6.73466 -26.3199
ltibia 42.5027
lfoot -18.5276 6.39845
ltoes -9.91201
491
root 2.38998 17.4967 6.1082 -364.852 -25.8694 4.17736
lowerback 25.1916 1.55076 0.723562
upperback 3.80764 2.81852 6.44545
thorax -10.118 1.3874 5.90441
lowerneck -12.7511 0.163755 -1.76012
upperneck 16.9885 2.13454 -8.4626
head 7.42658 0.106619 -2.26598
rclavicle -7.95139e-015 1.90833e-014
rhumerus -26.7737 -37.1228 -55.2566
rradius 28.6307
rwrist -2.81624
rhand -11.8825 -3.22211
rfingers 7.12502
rthumb 14.1702 -32.7188
lclavicle -7.95139e-015 1.90833e-014
lhumerus -43.5702 -0.189397 91.2939
lradius 59.415
lwrist 8.82875
lhand -11.9349 48.3184
lfingers 7.12502
lthumb 14.1197 77.8186
rfemur -20.642 -9.13185 15.4339
rtibia 55.7538
rfoot -24.3561 -30.708
rtoes 26.5579
lfemur -16.0144 6.4233 -26.3729
ltibia 42.4233
lfoot -18.502 5.82561
ltoes -9.35321
492
root 2.39601 17.5079 6.11834 -364.685 -25.2297 3.95894
lowerback 25.1556 1.52562 0.682595
upperback 3.70293 2.79458 6.53074
thorax -10.2226 1.38452 6.03709
lowerneck -12.3008 0.184412 -1.82204
upperneck 16.8557 2.10677 -8.26623
head 7.29806 0.123295 -2.18972
rclavicle 6.44062e-014 3.18055e-014
rhumerus -28.452 -39.1475 -53.765
rradius 29.4707
rwrist -4.23041
rhand -13.445 -2.81129
rfingers 7.12502
rthumb 12.6642 -32.4073
lclavicle 6.44062e-014 3.18055e-014
lhumerus -44.1505 0.625945 90.6985
lradius 59.044
lwrist 8.73033
lhand -11.8373 48.5612
lfingers 7.12502
lthumb 14.2138 78.0548
rfemur -20.7477 -8.7723 15.5971
rtibia 56.1125
rfoot -24.8116 -30.6485
rtoes 28.1622
lfemur -16.1611 6.0611 -26.1951
ltibia 42.2979
lfoot -18.2262 5.36124
ltoes -8.54191
493
root 2.40444 17.5157 6.13487 -364.594 -24.6446 3.64705
lowerback 25.2608 1.46824 0.714212
upperback 3.603 2.75682 6.65538
thorax -10.3938 1.37331 6.17931
lowerneck -12.1619 0.260845 -1.77913
upperneck 16.9569 2.1809 -8.13369
head 7.30687 0.173519 -2.14671
rclavicle 1.59028e-015 -1.27222e-014
rhumerus -29.9663 -39.8239 -52.7454
rradius 30.7945
rwrist -6.92934
rhand -15.5248 -3.09635
rfingers 7.12502
rthumb 10.6585 -32.806
lclavicle 1.59028e-015 -1.27222e-014
lhumerus -44.7883 1.4043 90.1469
lradius 58.6329
lwrist 9.15007
lhand -12.1243 49.0049
lfingers 7.12502
lthumb 13.9372 78.5177
rfemur -20.8075 -8.58339 15.8627
rtibia 56.5041
rfoot -24.4643 -31.3294
rtoes 28.7051
lfemur -16.0929 5.61502 -25.9417
ltibia 42.1602
lfoot -18.064 5.02379
ltoes -8.46892
